<svg width="32" height="32" viewBox="0 0 32 32" fill="none" xmlns="http://www.w3.org/2000/svg">
<path fill-rule="evenodd" clip-rule="evenodd" d="M2 13C2 16.94 3.99765 20.3961 7 22.3388V19.8265C5.1719 18.1872 4 15.7548 4 13C4 7.96046 7.92179 4 12.6083 4C16.5839 4 20.0091 6.85004 20.9569 10.7911L20.9599 10.7899C21.0937 11.3367 21.1791 11.9037 21.2108 12.4855C21.8339 12.1732 22.5272 12 23.2493 12C25.8053 12 28 14.1696 28 17C28 19.1518 26.7314 20.9218 25 21.6467V23.7623C27.8796 22.9627 30 20.2381 30 17C30 13.134 26.9776 10 23.2493 10C23.1054 10 22.9626 10.0047 22.821 10.0139C21.5661 5.38977 17.469 2 12.6083 2C6.74949 2 2 6.92487 2 13ZM17.8244 24.1229C17.9098 24.0632 17.9098 23.9368 17.8244 23.8771L17.3348 23.5344C17.287 23.5009 17.263 23.4428 17.2731 23.3854L17.377 22.7968C17.3951 22.6943 17.3057 22.6049 17.2032 22.623L16.6146 22.7269C16.5572 22.737 16.4991 22.713 16.4656 22.6652L16.1229 22.1756C16.0632 22.0902 15.9368 22.0902 15.8771 22.1756L15.5344 22.6652C15.5009 22.713 15.4428 22.737 15.3854 22.7269L14.7968 22.623C14.6943 22.6049 14.6049 22.6943 14.623 22.7968L14.7269 23.3854C14.737 23.4428 14.713 23.5009 14.6652 23.5344L14.1756 23.8771C14.0902 23.9368 14.0902 24.0632 14.1756 24.1229L14.6652 24.4656C14.713 24.4991 14.737 24.5572 14.7269 24.6146L14.623 25.2032C14.6049 25.3057 14.6943 25.3951 14.7968 25.377L15.3854 25.2731C15.4428 25.263 15.5009 25.287 15.5344 25.3348L15.8771 25.8244C15.9368 25.9098 16.0632 25.9098 16.1229 25.8244L16.4656 25.3348C16.4991 25.287 16.5572 25.263 16.6146 25.2731L17.2032 25.377C17.3057 25.3951 17.3951 25.3057 17.377 25.2032L17.2731 24.6146C17.263 24.5572 17.287 24.4991 17.3348 24.4656L17.8244 24.1229ZM14.6529 19.8771C14.7382 19.9368 14.7382 20.0632 14.6529 20.1229L14.1632 20.4656C14.1154 20.4991 14.0914 20.5572 14.1015 20.6146L14.2054 21.2032C14.2235 21.3057 14.1342 21.3951 14.0316 21.377L13.443 21.2731C13.3856 21.263 13.3275 21.287 13.2941 21.3348L12.9513 21.8244C12.8916 21.9098 12.7653 21.9098 12.7055 21.8244L12.3628 21.3348C12.3294 21.287 12.2713 21.263 12.2138 21.2731L11.6252 21.377C11.5227 21.3951 11.4334 21.3057 11.4515 21.2032L11.5553 20.6146C11.5655 20.5572 11.5414 20.4991 11.4936 20.4656L11.004 20.1229C10.9187 20.0632 10.9187 19.9368 11.004 19.8771L11.4936 19.5344C11.5414 19.5009 11.5655 19.4428 11.5553 19.3854L11.4515 18.7968C11.4334 18.6943 11.5227 18.6049 11.6252 18.623L12.2138 18.7269C12.2713 18.737 12.3294 18.713 12.3628 18.6652L12.7055 18.1756C12.7653 18.0902 12.8916 18.0902 12.9513 18.1756L13.2941 18.6652C13.3275 18.713 13.3856 18.737 13.443 18.7269L14.0316 18.623C14.1342 18.6049 14.2235 18.6943 14.2054 18.7968L14.1015 19.3854C14.0914 19.4428 14.1154 19.5009 14.1632 19.5344L14.6529 19.8771ZM14.6529 28.1229C14.7382 28.0632 14.7382 27.9368 14.6529 27.8771L14.1632 27.5344C14.1154 27.5009 14.0914 27.4428 14.1015 27.3854L14.2054 26.7968C14.2235 26.6943 14.1342 26.6049 14.0316 26.623L13.443 26.7269C13.3856 26.737 13.3275 26.713 13.2941 26.6652L12.9513 26.1756C12.8916 26.0902 12.7653 26.0902 12.7055 26.1756L12.3628 26.6652C12.3294 26.713 12.2713 26.737 12.2138 26.7269L11.6252 26.623C11.5227 26.6049 11.4334 26.6943 11.4515 26.7968L11.5553 27.3854C11.5655 27.4428 11.5414 27.5009 11.4936 27.5344L11.004 27.8771C10.9187 27.9368 10.9187 28.0632 11.004 28.1229L11.4936 28.4656C11.5414 28.4991 11.5655 28.5572 11.5553 28.6146L11.4515 29.2032C11.4334 29.3057 11.5227 29.3951 11.6252 29.377L12.2138 29.2731C12.2713 29.263 12.3294 29.287 12.3628 29.3348L12.7055 29.8244C12.7653 29.9098 12.8916 29.9098 12.9513 29.8244L13.2941 29.3348C13.3275 29.287 13.3856 29.263 13.443 29.2731L14.0316 29.377C14.1342 29.3951 14.2235 29.3057 14.2054 29.2032L14.1015 28.6146C14.0914 28.5572 14.1154 28.4991 14.1632 28.4656L14.6529 28.1229ZM23.8244 23.8771C23.9098 23.9368 23.9098 24.0632 23.8244 24.1229L23.3348 24.4656C23.287 24.4991 23.263 24.5572 23.2731 24.6146L23.377 25.2032C23.3951 25.3057 23.3057 25.3951 23.2032 25.377L22.6146 25.2731C22.5572 25.263 22.4991 25.287 22.4656 25.3348L22.1229 25.8244C22.0632 25.9098 21.9368 25.9098 21.8771 25.8244L21.5344 25.3348C21.5009 25.287 21.4428 25.263 21.3854 25.2731L20.7968 25.377C20.6943 25.3951 20.6049 25.3057 20.623 25.2032L20.7269 24.6146C20.737 24.5572 20.713 24.4991 20.6652 24.4656L20.1756 24.1229C20.0902 24.0632 20.0902 23.9368 20.1756 23.8771L20.6652 23.5344C20.713 23.5009 20.737 23.4428 20.7269 23.3854L20.623 22.7968C20.6049 22.6943 20.6943 22.6049 20.7968 22.623L21.3854 22.7269C21.4428 22.737 21.5009 22.713 21.5344 22.6652L21.8771 22.1756C21.9368 22.0902 22.0632 22.0902 22.1229 22.1756L22.4656 22.6652C22.4991 22.713 22.5572 22.737 22.6146 22.7269L23.2032 22.623C23.3057 22.6049 23.3951 22.6943 23.377 22.7968L23.2731 23.3854C23.263 23.4428 23.287 23.5009 23.3348 23.5344L23.8244 23.8771ZM20.6529 20.1229C20.7382 20.0632 20.7382 19.9368 20.6529 19.8771L20.1632 19.5344C20.1154 19.5009 20.0914 19.4428 20.1015 19.3854L20.2054 18.7968C20.2235 18.6943 20.1342 18.6049 20.0316 18.623L19.443 18.7269C19.3856 18.737 19.3275 18.713 19.2941 18.6652L18.9513 18.1756C18.8916 18.0902 18.7653 18.0902 18.7055 18.1756L18.3628 18.6652C18.3294 18.713 18.2713 18.737 18.2138 18.7269L17.6252 18.623C17.5227 18.6049 17.4334 18.6943 17.4515 18.7968L17.5553 19.3854C17.5655 19.4428 17.5414 19.5009 17.4936 19.5344L17.004 19.8771C16.9187 19.9368 16.9187 20.0632 17.004 20.1229L17.4936 20.4656C17.5414 20.4991 17.5655 20.5572 17.5553 20.6146L17.4515 21.2032C17.4334 21.3057 17.5227 21.3951 17.6252 21.377L18.2138 21.2731C18.2713 21.263 18.3294 21.287 18.3628 21.3348L18.7055 21.8244C18.7653 21.9098 18.8916 21.9098 18.9513 21.8244L19.2941 21.3348C19.3275 21.287 19.3856 21.263 19.443 21.2731L20.0316 21.377C20.1342 21.3951 20.2235 21.3057 20.2054 21.2032L20.1015 20.6146C20.0914 20.5572 20.1154 20.4991 20.1632 20.4656L20.6529 20.1229ZM20.6529 27.8771C20.7382 27.9368 20.7382 28.0632 20.6529 28.1229L20.1632 28.4656C20.1154 28.4991 20.0914 28.5572 20.1015 28.6146L20.2054 29.2032C20.2235 29.3057 20.1342 29.3951 20.0316 29.377L19.443 29.2731C19.3856 29.263 19.3275 29.287 19.2941 29.3348L18.9513 29.8244C18.8916 29.9098 18.7653 29.9098 18.7055 29.8244L18.3628 29.3348C18.3294 29.287 18.2713 29.263 18.2138 29.2731L17.6252 29.377C17.5227 29.3951 17.4334 29.3057 17.4515 29.2032L17.5553 28.6146C17.5655 28.5572 17.5414 28.4991 17.4936 28.4656L17.004 28.1229C16.9187 28.0632 16.9187 27.9368 17.004 27.8771L17.4936 27.5344C17.5414 27.5009 17.5655 27.4428 17.5553 27.3854L17.4515 26.7968C17.4334 26.6943 17.5227 26.6049 17.6252 26.623L18.2138 26.7269C18.2713 26.737 18.3294 26.713 18.3628 26.6652L18.7055 26.1756C18.7653 26.0902 18.8916 26.0902 18.9513 26.1756L19.2941 26.6652C19.3275 26.713 19.3856 26.737 19.443 26.7269L20.0316 26.623C20.1342 26.6049 20.2235 26.6943 20.2054 26.7968L20.1015 27.3854C20.0914 27.4428 20.1154 27.5009 20.1632 27.5344L20.6529 27.8771ZM11.6529 24.1229C11.7382 24.0632 11.7382 23.9368 11.6529 23.8771L11.1632 23.5344C11.1154 23.5009 11.0914 23.4428 11.1015 23.3854L11.2054 22.7968C11.2235 22.6943 11.1342 22.6049 11.0316 22.623L10.443 22.7269C10.3856 22.737 10.3275 22.713 10.2941 22.6652L9.95132 22.1756C9.8916 22.0902 9.76526 22.0902 9.70554 22.1756L9.3628 22.6652C9.32936 22.713 9.27127 22.737 9.21384 22.7269L8.62525 22.623C8.5227 22.6049 8.43336 22.6943 8.45146 22.7968L8.55534 23.3854C8.56547 23.4428 8.54141 23.5009 8.49364 23.5344L8.00399 23.8771C7.91868 23.9368 7.91868 24.0632 8.00399 24.1229L8.49364 24.4656C8.54141 24.4991 8.56547 24.5572 8.55534 24.6146L8.45146 25.2032C8.43336 25.3057 8.5227 25.3951 8.62525 25.377L9.21384 25.2731C9.27127 25.263 9.32936 25.287 9.3628 25.3348L9.70554 25.8244C9.76526 25.9098 9.8916 25.9098 9.95132 25.8244L10.2941 25.3348C10.3275 25.287 10.3856 25.263 10.443 25.2731L11.0316 25.377C11.1342 25.3951 11.2235 25.3057 11.2054 25.2032L11.1015 24.6146C11.0914 24.5572 11.1154 24.4991 11.1632 24.4656L11.6529 24.1229Z" fill="#FFE4CF"/>
</svg>
