<svg width="32" height="32" viewBox="0 0 32 32" fill="none" xmlns="http://www.w3.org/2000/svg">
<path fill-rule="evenodd" clip-rule="evenodd" d="M10.8244 7.12301C10.9098 7.06329 10.9098 6.93695 10.8244 6.87723L10.3348 6.53449C10.287 6.50105 10.263 6.44296 10.2731 6.38553L10.377 5.79694C10.3951 5.69439 10.3057 5.60505 10.2032 5.62315L9.61459 5.72703C9.55716 5.73716 9.49907 5.7131 9.46563 5.66533L9.12289 5.17568C9.06317 5.09037 8.93683 5.09037 8.87711 5.17568L8.53437 5.66533C8.50093 5.7131 8.44284 5.73716 8.38541 5.72703L7.79682 5.62315C7.69427 5.60505 7.60493 5.69439 7.62303 5.79694L7.72691 6.38553C7.73704 6.44296 7.71298 6.50105 7.66521 6.53449L7.17556 6.87723C7.09025 6.93695 7.09025 7.06329 7.17556 7.12301L7.66521 7.46575C7.71298 7.49919 7.73704 7.55728 7.72691 7.61471L7.62303 8.2033C7.60493 8.30585 7.69427 8.39519 7.79682 8.37709L8.38541 8.27321C8.44284 8.26308 8.50093 8.28714 8.53437 8.33491L8.87711 8.82456C8.93683 8.90987 9.06317 8.90987 9.12289 8.82456L9.46563 8.33491C9.49907 8.28714 9.55716 8.26308 9.61459 8.27321L10.2032 8.37709C10.3057 8.39519 10.3951 8.30585 10.377 8.2033L10.2731 7.61471C10.263 7.55728 10.287 7.49919 10.3348 7.46575L10.8244 7.12301ZM13.9961 11.123C14.0814 11.0633 14.0814 10.9369 13.9961 10.8772L13.5064 10.5345C13.4586 10.501 13.4346 10.443 13.4447 10.3855L13.5486 9.79694C13.5667 9.69439 13.4774 9.60505 13.3748 9.62315L12.7862 9.72703C12.7288 9.73716 12.6707 9.7131 12.6373 9.66533L12.2945 9.17568C12.2348 9.09037 12.1085 9.09037 12.0487 9.17568L11.706 9.66533C11.6726 9.7131 11.6145 9.73716 11.557 9.72703L10.9684 9.62315C10.8659 9.60505 10.7766 9.69439 10.7947 9.79694L10.8985 10.3855C10.9087 10.443 10.8846 10.501 10.8368 10.5345L10.3472 10.8772C10.2619 10.9369 10.2619 11.0633 10.3472 11.123L10.8368 11.4658C10.8846 11.4992 10.9087 11.5573 10.8985 11.6147L10.7947 12.2033C10.7766 12.3058 10.8659 12.3952 10.9684 12.3771L11.557 12.2732C11.6145 12.2631 11.6726 12.2871 11.706 12.3349L12.0487 12.8246C12.1085 12.9099 12.2348 12.9099 12.2945 12.8246L12.6373 12.3349C12.6707 12.2871 12.7288 12.2631 12.7862 12.2732L13.3748 12.3771C13.4774 12.3952 13.5667 12.3059 13.5486 12.2033L13.4447 11.6147C13.4346 11.5573 13.4586 11.4992 13.5064 11.4658L13.9961 11.123ZM19.9961 10.8772C20.0814 10.9369 20.0814 11.0633 19.9961 11.123L19.5064 11.4658C19.4586 11.4992 19.4346 11.5573 19.4447 11.6147L19.5486 12.2033C19.5667 12.3059 19.4774 12.3952 19.3748 12.3771L18.7862 12.2732C18.7288 12.2631 18.6707 12.2871 18.6373 12.3349L18.2945 12.8246C18.2348 12.9099 18.1085 12.9099 18.0487 12.8246L17.706 12.3349C17.6726 12.2871 17.6145 12.2631 17.557 12.2732L16.9684 12.3771C16.8659 12.3952 16.7766 12.3058 16.7947 12.2033L16.8985 11.6147C16.9087 11.5573 16.8846 11.4992 16.8368 11.4658L16.3472 11.123C16.2619 11.0633 16.2619 10.9369 16.3472 10.8772L16.8368 10.5345C16.8846 10.501 16.9087 10.443 16.8985 10.3855L16.7947 9.79694C16.7766 9.69439 16.8659 9.60505 16.9684 9.62315L17.557 9.72703C17.6145 9.73716 17.6726 9.7131 17.706 9.66533L18.0487 9.17568C18.1085 9.09037 18.2348 9.09037 18.2945 9.17568L18.6373 9.66533C18.6707 9.7131 18.7288 9.73716 18.7862 9.72703L19.3748 9.62315C19.4774 9.60505 19.5667 9.69439 19.5486 9.79694L19.4447 10.3855C19.4346 10.443 19.4586 10.501 19.5064 10.5345L19.9961 10.8772ZM16.8244 7.12301C16.9098 7.06329 16.9098 6.93695 16.8244 6.87723L16.3348 6.53449C16.287 6.50105 16.263 6.44296 16.2731 6.38553L16.377 5.79694C16.3951 5.69439 16.3057 5.60505 16.2032 5.62315L15.6146 5.72703C15.5572 5.73716 15.4991 5.7131 15.4656 5.66533L15.1229 5.17568C15.0632 5.09037 14.9368 5.09037 14.8771 5.17568L14.5344 5.66533C14.5009 5.7131 14.4428 5.73716 14.3854 5.72703L13.7968 5.62315C13.6943 5.60505 13.6049 5.69439 13.623 5.79694L13.7269 6.38553C13.737 6.44296 13.713 6.50105 13.6652 6.53449L13.1756 6.87723C13.0902 6.93695 13.0902 7.06329 13.1756 7.12301L13.6652 7.46575C13.713 7.49919 13.737 7.55728 13.7269 7.61471L13.623 8.2033C13.6049 8.30585 13.6943 8.39519 13.7968 8.37709L14.3854 8.27321C14.4428 8.26308 14.5009 8.28714 14.5344 8.33491L14.8771 8.82456C14.9368 8.90987 15.0632 8.90987 15.1229 8.82456L15.4656 8.33491C15.4991 8.28714 15.5572 8.26308 15.6146 8.27321L16.2032 8.37709C16.3057 8.39519 16.3951 8.30585 16.377 8.2033L16.2731 7.61471C16.263 7.55728 16.287 7.49919 16.3348 7.46575L16.8244 7.12301ZM7.82444 10.8772C7.90975 10.9369 7.90975 11.0633 7.82444 11.123L7.33479 11.4658C7.28702 11.4992 7.26296 11.5573 7.27309 11.6147L7.37697 12.2033C7.39507 12.3059 7.30573 12.3952 7.20318 12.3771L6.61459 12.2732C6.55716 12.2631 6.49907 12.2871 6.46563 12.3349L6.12289 12.8246C6.06317 12.9099 5.93683 12.9099 5.87711 12.8246L5.53437 12.3349C5.50093 12.2871 5.44284 12.2631 5.38541 12.2732L4.79682 12.3771C4.69427 12.3952 4.60493 12.3058 4.62303 12.2033L4.72691 11.6147C4.73704 11.5573 4.71298 11.4992 4.66521 11.4658L4.17556 11.123C4.09025 11.0633 4.09025 10.9369 4.17556 10.8772L4.66521 10.5345C4.71298 10.501 4.73704 10.443 4.72691 10.3855L4.62303 9.79694C4.60493 9.69439 4.69427 9.60505 4.79682 9.62315L5.38541 9.72703C5.44284 9.73716 5.50093 9.7131 5.53437 9.66533L5.87711 9.17568C5.93683 9.09037 6.06317 9.09037 6.12289 9.17568L6.46563 9.66533C6.49907 9.7131 6.55716 9.73716 6.61459 9.72703L7.20318 9.62315C7.30573 9.60505 7.39507 9.69439 7.37697 9.79694L7.27309 10.3855C7.26296 10.443 7.28702 10.501 7.33479 10.5345L7.82444 10.8772ZM23.0172 11.2486L23.018 11.2481C23.2841 11.098 23.581 11.0108 23.886 10.9934C24.1913 10.9759 24.4966 11.0288 24.7782 11.148C25.0599 11.2671 25.3105 11.4493 25.5106 11.6806C25.7108 11.9119 25.8552 12.186 25.9328 12.4819C26.0104 12.7778 26.019 13.0876 25.958 13.3874C25.897 13.6871 25.7681 13.9689 25.5811 14.211C25.3941 14.453 25.1541 14.6489 24.8795 14.7836C24.6049 14.9182 24.303 14.988 23.9972 14.9876L23.9972 14.9897H4V16.9897H23.9944V16.99C24.6066 16.9909 25.2108 16.8512 25.7606 16.5816C25.8403 16.5426 25.9185 16.5009 25.9952 16.4568C26.4474 16.1965 26.8451 15.8497 27.1651 15.4354C27.5395 14.9508 27.7976 14.3867 27.9197 13.7866C28.0417 13.1865 28.0245 12.5664 27.8692 11.9741C27.7139 11.3817 27.4248 10.8329 27.0241 10.3699C26.6234 9.90693 26.1218 9.54213 25.5579 9.30362C25.0757 9.09966 24.559 8.9927 24.0373 8.98784C23.9489 8.98702 23.8603 8.98913 23.7718 8.99419C23.1613 9.02909 22.567 9.20352 22.0345 9.50405L22.0325 9.50516L22.0336 9.50718L23.0172 11.2486ZM4 21.0525L17.2058 25.7507L17.2057 25.751C17.6836 25.9417 18.1977 26.0246 18.7113 25.9938C18.9088 25.982 19.1043 25.9535 19.2959 25.9088C19.6026 25.8373 19.8991 25.7245 20.1771 25.5728C20.6288 25.3264 21.0206 24.9833 21.3246 24.568C21.6286 24.1528 21.8372 23.6755 21.9357 23.1704C22.0342 22.6652 22.0201 22.1445 21.8943 21.6454C21.7686 21.1463 21.5344 20.6811 21.2083 20.283C21.0076 20.0379 20.7752 19.8219 20.5178 19.6404C20.357 19.527 20.1866 19.4271 20.008 19.3419C19.5443 19.1207 19.0376 19.0043 18.5239 19.0011V18.9981L4 18.9981V21.0525ZM18.5103 20.9983L9.8151 20.9983L17.9842 23.9045L17.9835 23.9066C18.1776 23.9782 18.3847 24.0089 18.5916 23.9965C18.8115 23.9833 19.0258 23.9217 19.2193 23.8162C19.4127 23.7106 19.5805 23.5637 19.7106 23.3859C19.8408 23.2081 19.9302 23.0037 19.9723 22.7874C20.0145 22.5711 20.0085 22.3481 19.9546 22.1344C19.9008 21.9207 19.8005 21.7214 19.6608 21.5509C19.5212 21.3804 19.3457 21.2428 19.1468 21.148C18.9483 21.0532 18.7312 21.0034 18.5112 21.002L18.5103 21.002L18.5103 21.0016L18.5103 20.9983Z" fill="#FFE4CF"/>
</svg>
