<svg width="32" height="32" viewBox="0 0 32 32" fill="none" xmlns="http://www.w3.org/2000/svg">
<path fill-rule="evenodd" clip-rule="evenodd" d="M19.1058 4.40887C19.5521 4.52844 19.9857 4.67166 20.4057 4.8368C17.5013 5.10789 14.9493 7.1665 14.1926 10.1538C13.2316 13.9479 15.5306 17.8033 19.3276 18.7651C22.9979 19.6948 26.7244 17.5805 27.837 14.0115C28.1146 15.6575 28.0514 17.3881 27.5911 19.1058C25.8758 25.5074 19.2958 29.3064 12.8942 27.5911C6.49257 25.8758 2.69358 19.2957 4.40888 12.8941C6.12418 6.49256 12.7042 2.69357 19.1058 4.40887ZM25.5262 7.58547C25.4663 7.40121 25.2056 7.40121 25.1457 7.58547L24.8564 8.47597C24.8296 8.55837 24.7528 8.61416 24.6662 8.61416L23.7299 8.61416C23.5361 8.61416 23.4556 8.86209 23.6123 8.97597L24.3698 9.52632C24.4399 9.57725 24.4692 9.66753 24.4425 9.74993L24.1531 10.6404C24.0933 10.8247 24.3042 10.9779 24.4609 10.864L25.2184 10.3137C25.2885 10.2627 25.3834 10.2627 25.4535 10.3137L26.211 10.864C26.3678 10.9779 26.5787 10.8247 26.5188 10.6404L26.2294 9.74993C26.2027 9.66753 26.232 9.57725 26.3021 9.52633L27.0596 8.97597C27.2163 8.86209 27.1358 8.61416 26.942 8.61416L26.0057 8.61416C25.9191 8.61416 25.8423 8.55837 25.8155 8.47597L25.5262 7.58547ZM19.1457 7.58547C19.2056 7.40121 19.4663 7.40121 19.5262 7.58547L19.8155 8.47597C19.8423 8.55837 19.9191 8.61416 20.0057 8.61416L20.942 8.61416C21.1358 8.61416 21.2163 8.86209 21.0596 8.97597L20.3021 9.52633C20.232 9.57725 20.2027 9.66753 20.2294 9.74993L20.5188 10.6404C20.5787 10.8247 20.3678 10.9779 20.211 10.864L19.4535 10.3137C19.3834 10.2627 19.2885 10.2627 19.2184 10.3137L18.4609 10.864C18.3042 10.9779 18.0933 10.8247 18.1531 10.6404L18.4425 9.74993C18.4692 9.66753 18.4399 9.57725 18.3698 9.52633L17.6123 8.97597C17.4556 8.86209 17.5361 8.61416 17.7299 8.61416L18.6662 8.61416C18.7528 8.61416 18.8296 8.55837 18.8564 8.47597L19.1457 7.58547ZM22.5262 11.5855C22.4663 11.4012 22.2056 11.4012 22.1457 11.5855L21.8564 12.476C21.8296 12.5584 21.7528 12.6142 21.6662 12.6142L20.7299 12.6142C20.5361 12.6142 20.4556 12.8621 20.6123 12.976L21.3698 13.5263C21.4399 13.5773 21.4692 13.6675 21.4425 13.7499L21.1531 14.6404C21.0933 14.8247 21.3042 14.9779 21.4609 14.864L22.2184 14.3137C22.2885 14.2627 22.3834 14.2627 22.4535 14.3137L23.211 14.864C23.3678 14.9779 23.5786 14.8247 23.5188 14.6404L23.2294 13.7499C23.2027 13.6675 23.232 13.5773 23.3021 13.5263L24.0596 12.976C24.2163 12.8621 24.1358 12.6142 23.942 12.6142L23.0057 12.6142C22.9191 12.6142 22.8423 12.5584 22.8155 12.476L22.5262 11.5855Z" fill="#FFE4CF"/>
</svg>
