<svg width="32" height="32" viewBox="0 0 32 32" fill="none" xmlns="http://www.w3.org/2000/svg">
<path fill-rule="evenodd" clip-rule="evenodd" d="M19.6361 2C19.6361 1.44772 19.1884 1 18.6361 1C18.0838 1 17.6361 1.44772 17.6361 2V4.43513C17.6361 4.98741 18.0838 5.43513 18.6361 5.43513C19.1884 5.43513 19.6361 4.98741 19.6361 4.43513V2ZM30 14.3639C30.5523 14.3639 31 13.9162 31 13.3639C31 12.8116 30.5523 12.3639 30 12.3639H27.5649C27.0126 12.3639 26.5649 12.8116 26.5649 13.3639C26.5649 13.9162 27.0126 14.3639 27.5649 14.3639H30ZM29.3436 7.18197C29.6197 7.66026 29.4558 8.27185 28.9775 8.54799L26.8687 9.76556C26.3904 10.0417 25.7788 9.87782 25.5026 9.39953C25.2265 8.92124 25.3904 8.30965 25.8687 8.03351L27.9775 6.81594C28.4558 6.5398 29.0674 6.70367 29.3436 7.18197ZM25.1841 4.02245C25.4603 3.54416 25.2964 2.93257 24.8181 2.65643C24.3398 2.38028 23.7282 2.54416 23.4521 3.02245L22.2345 5.13133C21.9584 5.60963 22.1222 6.22122 22.6005 6.49736C23.0788 6.7735 23.6904 6.60963 23.9666 6.13133L25.1841 4.02245ZM12.4541 2.65643C12.9324 2.38028 13.544 2.54416 13.8201 3.02245L15.0377 5.13133C15.3138 5.60963 15.15 6.22122 14.6717 6.49736C14.1934 6.7735 13.5818 6.60963 13.3056 6.13133L12.0881 4.02245C11.8119 3.54416 11.9758 2.93257 12.4541 2.65643ZM20.2741 15.5255C19.2232 13.2436 17.2817 11.4564 14.8951 10.6093C14.1329 10.3752 13.3286 10.25 12.5 10.25C7.87115 10.25 4 14.1567 4 19.125C4 24.0933 7.87115 28 12.5 28L12.5411 27.9999V28H12.6951L12.6971 28L22.9973 28H23L23.0043 28C25.6983 27.9976 28 25.7147 28 22.75C28 19.7838 25.6958 17.5 23 17.5C22.2698 17.5 21.5684 17.6675 20.9337 17.9708C20.8474 17.2839 20.685 16.6218 20.4555 15.9939L20.4577 15.993C20.4006 15.8349 20.3394 15.679 20.2741 15.5255ZM26.1536 13.3638C26.1536 14.3075 25.981 15.2109 25.6657 16.0442C28.2095 17.1301 30 19.7235 30 22.75C30 26.6182 27.0751 29.7788 23.391 29.9889C23.3422 29.9962 23.2922 30 23.2414 30H23.0051L23 30L22.9949 30H12.6971C12.6813 30 12.6657 29.9996 12.6501 29.9989C12.6001 29.9996 12.5501 30 12.5 30C6.70101 30 2 25.1311 2 19.125C2 13.1189 6.70101 8.25 12.5 8.25C12.6601 8.25 12.8194 8.25371 12.9778 8.26106C14.3633 6.74142 16.3591 5.78784 18.5776 5.78784C22.7617 5.78784 26.1536 9.17971 26.1536 13.3638Z" fill="#FFE4CF"/>
</svg>
