<svg width="32" height="32" viewBox="0 0 32 32" fill="none" xmlns="http://www.w3.org/2000/svg">
<path fill-rule="evenodd" clip-rule="evenodd" d="M27.5604 17.103C29.0748 15.4989 29.9999 13.3551 29.9999 11C29.9999 9.8493 29.7791 8.74903 29.3765 7.73752C29.1091 8.47078 28.6399 9.11088 28.034 9.5944L28.0326 9.59276C27.7046 9.85342 27.3423 10.0636 26.958 10.2194C26.3673 10.459 25.7249 10.5699 25.0759 10.5379L25.0575 10.5369C23.9801 10.4793 22.963 10.0315 22.2045 9.2809L22.1967 9.27318C21.5128 8.59303 21.0849 7.70983 20.9771 6.76748C20.9661 6.67105 20.9584 6.57401 20.9541 6.47651C20.9412 6.18099 20.9599 5.88713 21.0088 5.59937C21.2619 4.16417 22.2571 2.97619 23.5957 2.42407C22.7127 2.14865 21.7718 2 20.7954 2C16.7848 2 13.3734 4.50795 12.1119 8.00738C6.49271 8.22127 2 13.061 2 19C2 25.0751 6.70101 30 12.5 30L12.5283 30V30H23L23 29.9999C26.866 29.9999 30 26.7167 30 22.6666C30 20.4415 29.054 18.4478 27.5604 17.103ZM12.5534 27.9998L12.5 28C7.89224 28 4 24.0593 4 19C4 13.9407 7.89224 10 12.5 10C16.0862 10 19.2389 12.3871 20.4607 15.8307L20.4583 15.8316C20.6824 16.4624 20.8416 17.1268 20.9271 17.8158C21.5652 17.5047 22.2695 17.3333 23 17.3333C25.6747 17.3333 28 19.6324 28 22.6666C28 25.7008 25.6747 27.9999 23 27.9999L23 28H12.5534V27.9998Z" fill="#FFE4CF"/>
</svg>
