<svg width="32" height="32" viewBox="0 0 32 32" fill="none" xmlns="http://www.w3.org/2000/svg">
<path fill-rule="evenodd" clip-rule="evenodd" d="M2 13C2 17.3628 4.44938 21.1323 8 22.9107V20.6003C5.61019 19.0152 4 16.2291 4 13C4 7.96046 7.92179 4 12.6083 4C16.5839 4 20.0091 6.85004 20.9569 10.7911L20.9599 10.7899C21.0937 11.3367 21.1791 11.9037 21.2108 12.4855C21.8339 12.1732 22.5272 12 23.2493 12C25.8053 12 28 14.1696 28 17C28 19.5486 26.2205 21.5615 24 21.937V23.9572C27.375 23.57 30 20.6028 30 17C30 13.134 26.9776 10 23.2493 10C23.1054 10 22.9626 10.0047 22.821 10.0139C21.5661 5.38977 17.469 2 12.6083 2C6.74949 2 2 6.92487 2 13ZM12.5004 25.0021C13.8812 25.0021 15.0002 23.8622 14.9998 22.456C14.9991 20.3172 12.4979 17 12.4979 17C12.4979 17 9.99862 20.0553 9.99935 22.456C9.99979 23.8622 11.1195 25.0021 12.5004 25.0021ZM22.0021 22.456C22.0025 23.8622 20.8835 25.0021 19.5027 25.0021C18.1218 25.0021 17.0021 23.8622 17.0017 22.456C17.0009 20.0553 19.5002 17 19.5002 17C19.5002 17 22.0015 20.3172 22.0021 22.456ZM16.1 26.0577C16.0381 26.022 15.9619 26.022 15.9 26.0577L14.3679 26.9423C14.3061 26.978 14.2679 27.044 14.2679 27.1155V28.8845C14.2679 28.956 14.3061 29.022 14.3679 29.0577L15.9 29.9423C15.9619 29.978 16.0381 29.978 16.1 29.9423L17.6321 29.0577C17.6939 29.022 17.7321 28.956 17.7321 28.8845V27.1155C17.7321 27.044 17.6939 26.978 17.6321 26.9423L16.1 26.0577ZM21.9 26.0577C21.9619 26.022 22.0381 26.022 22.1 26.0577L23.6321 26.9423C23.6939 26.978 23.7321 27.044 23.7321 27.1155V28.8845C23.7321 28.956 23.6939 29.022 23.6321 29.0577L22.1 29.9423C22.0381 29.978 21.9619 29.978 21.9 29.9423L20.3679 29.0577C20.3061 29.022 20.268 28.956 20.268 28.8845V27.1155C20.268 27.044 20.3061 26.978 20.3679 26.9423L21.9 26.0577ZM10.1 26.0577C10.0381 26.022 9.96188 26.022 9.9 26.0577L8.36795 26.9423C8.30607 26.978 8.26795 27.044 8.26795 27.1155V28.8845C8.26795 28.956 8.30607 29.022 8.36795 29.0577L9.9 29.9423C9.96188 29.978 10.0381 29.978 10.1 29.9423L11.6321 29.0577C11.6939 29.022 11.7321 28.956 11.7321 28.8845V27.1155C11.7321 27.044 11.6939 26.978 11.6321 26.9423L10.1 26.0577Z" fill="#FFE4CF"/>
</svg>
