<svg width="32" height="32" viewBox="0 0 32 32" fill="none" xmlns="http://www.w3.org/2000/svg">
<path fill-rule="evenodd" clip-rule="evenodd" d="M2 12.9999C2 17.3627 4.44938 21.1322 8 22.9106V20.6002C5.61019 19.0152 4 16.2291 4 12.9999C4 7.9604 7.92179 3.99994 12.6083 3.99994C16.5839 3.99994 20.0091 6.84998 20.9569 10.7911L20.9599 10.7899C21.0937 11.3367 21.1791 11.9036 21.2108 12.4854C21.8339 12.1731 22.5272 11.9999 23.2493 11.9999C25.8053 11.9999 28 14.1695 28 16.9999C28 18.7104 27.1984 20.1796 26 21.0744V23.3943C28.3573 22.3024 30 19.8501 30 16.9999C30 13.1339 26.9776 9.99995 23.2493 9.99995C23.1054 9.99995 22.9626 10.0046 22.821 10.0138C21.5661 5.3897 17.469 1.99994 12.6083 1.99994C6.74949 1.99994 2 6.92481 2 12.9999ZM21.157 20.98C20.4541 22.1979 18.915 22.6253 17.7192 21.9347C16.5235 21.2441 16.124 19.697 16.8269 18.4791C18.0269 16.3998 21.7192 15.0041 21.7192 15.0041C21.7192 15.0041 22.2262 19.1275 21.157 20.98ZM14.5541 21.9977C13.8513 23.2156 12.3121 23.643 11.1164 22.9524C9.92065 22.2618 9.52113 20.7147 10.224 19.4968C11.4241 17.4175 15.1164 16.0218 15.1164 16.0218C15.1164 16.0218 15.6233 20.1452 14.5541 21.9977ZM19.9734 28.0678C21.1692 28.7584 22.7083 28.3309 23.4112 27.1131C24.4804 25.2606 23.9734 21.1371 23.9734 21.1371C23.9734 21.1371 20.2811 22.5329 19.0811 24.6122C18.3782 25.8301 18.7777 27.3772 19.9734 28.0678ZM16.6929 28.7149C15.99 29.9328 14.4509 30.3603 13.2551 29.6697C12.0594 28.9791 11.6599 27.4319 12.3628 26.2141C13.5628 24.1348 17.2551 22.739 17.2551 22.739C17.2551 22.739 17.762 26.8625 16.6929 28.7149Z" fill="#FFE4CF"/>
</svg>
