<svg width="24" height="24" viewBox="0 0 24 24" fill="none" xmlns="http://www.w3.org/2000/svg">
<path fill-rule="evenodd" clip-rule="evenodd" d="M16.75 15.2728C16.75 17.0358 14.9441 19 12 19C9.05592 19 7.25 17.0358 7.25 15.2728C7.25 13.2507 8.5881 10.6342 10.2595 8.26386C10.8488 7.42808 11.4405 6.67666 11.9522 6.06158C12.4832 6.73253 13.105 7.55612 13.7243 8.46145C14.5316 9.64153 15.3091 10.9234 15.8782 12.1611C16.4617 13.4299 16.75 14.4906 16.75 15.2728ZM5.25 15.2728C5.25 11.4203 8.6853 6.81849 10.6544 4.49713C11.4455 3.56453 12 3 12 3C12 3 12.5313 3.58728 13.2957 4.53855C15.2561 6.97806 18.75 11.8114 18.75 15.2728C18.75 18.4359 15.7279 21 12 21C8.27208 21 5.25 18.4359 5.25 15.2728ZM8.62375 12.75H10.7864C10.4481 13.4728 10.25 14.1341 10.25 14.6592C10.25 15.1887 10.81 16 12 16V18C9.92893 18 8.25 16.5043 8.25 14.6592C8.25 14.0435 8.39325 13.395 8.62375 12.75Z" fill="#FFB38F"/>
</svg>
