<svg width="32" height="32" viewBox="0 0 32 32" fill="none" xmlns="http://www.w3.org/2000/svg">
<path fill-rule="evenodd" clip-rule="evenodd" d="M26.65 11.5667C26.65 12.119 26.2023 12.5667 25.65 12.5667H9.56677C9.01449 12.5667 8.56677 12.119 8.56677 11.5667C8.56677 11.0144 9.01449 10.5667 9.56677 10.5667H25.65C26.2023 10.5667 26.65 11.0144 26.65 11.5667ZM23.4333 16C23.4333 16.5523 22.9856 17 22.4333 17L6.3501 17C5.79781 17 5.3501 16.5523 5.3501 16C5.3501 15.4477 5.79781 15 6.3501 15L22.4333 15C22.9856 15 23.4333 15.4477 23.4333 16ZM25.65 21.4333C26.2023 21.4333 26.65 20.9856 26.65 20.4333C26.65 19.881 26.2023 19.4333 25.65 19.4333H9.56677C9.01449 19.4333 8.56677 19.881 8.56677 20.4333C8.56677 20.9856 9.01449 21.4333 9.56677 21.4333H25.65Z" fill="#FFE4CF"/>
</svg>
