<svg width="32" height="32" viewBox="0 0 32 32" fill="none" xmlns="http://www.w3.org/2000/svg">
<path fill-rule="evenodd" clip-rule="evenodd" d="M29.3788 9.68862C29.0812 10.4121 28.6414 11.0637 28.0937 11.6095C27.0311 12.6543 25.6079 13.2633 24.1092 13.312C22.5802 13.3618 21.0908 12.8245 19.9521 11.8124C18.8134 10.8004 18.1134 9.39175 17.9982 7.88067C17.8848 6.39337 18.3467 4.92001 19.2884 3.75857C19.7886 3.15913 20.4071 2.65945 21.1086 2.29432C20.2704 2.10178 19.3972 2 18.4999 2C12.1487 2 6.99994 7.09996 6.99994 13.3911C6.99994 14.1081 7.06683 14.8097 7.19475 15.49C4.1776 16.4531 1.99475 19.257 1.99475 22.5659C1.99475 26.671 5.35437 29.9988 9.49868 29.9988L9.50497 29.9988V30.0002H16.7242C16.8164 30.0053 16.9092 30.0079 17.0027 30.0079C19.7655 30.0079 22.0053 27.7681 22.0053 25.0053C22.0053 24.7522 21.9865 24.5035 21.9502 24.2606C26.6158 22.809 29.9999 18.4915 29.9999 13.3911C29.9999 12.095 29.7814 10.8494 29.3788 9.68862ZM17.4758 20.0247C16.8097 18.4873 15.5565 17.2585 13.9957 16.6151C15.1513 17.4733 16.0488 18.6542 16.5519 20.0227C16.7004 20.0094 16.8507 20.0026 17.0027 20.0026C17.1622 20.0026 17.3201 20.0101 17.4758 20.0247ZM9.5249 27.9987L9.49868 27.9988C6.44095 27.9988 3.99475 25.5485 3.99475 22.5659C3.99475 19.5833 6.44095 17.1331 9.49868 17.1331C11.8725 17.1331 13.8777 18.6098 14.656 20.6659L14.6611 20.6632C14.884 21.2556 15.0058 21.8968 15.0058 22.5661C15.0058 22.6331 15.0046 22.6998 15.0022 22.7661C15.5332 22.2913 16.2342 22.0026 17.0027 22.0026C18.661 22.0026 20.0053 23.347 20.0053 25.0053C20.0053 26.6636 18.661 28.0079 17.0027 28.0079H16.9999V28.0002H16.7871L16.7663 27.9987H12.9941L12.9953 28.0002H12.988L12.9868 27.9987H9.5249Z" fill="#FFE4CF"/>
</svg>
