<svg width="32" height="32" viewBox="0 0 32 32" fill="none" xmlns="http://www.w3.org/2000/svg">
<path fill-rule="evenodd" clip-rule="evenodd" d="M16 1C16.5523 1 17 1.44772 17 2V5C17 5.55228 16.5523 6 16 6C15.4477 6 15 5.55228 15 5V2C15 1.44772 15.4477 1 16 1ZM18.1706 20.0683C17.6332 20.1581 17.1247 20.3335 16.6598 20.5802C16.8825 21.1779 17.0042 21.8247 17.0042 22.5C17.0042 22.5891 17.0021 22.6776 16.9979 22.7657C17.5289 22.2895 18.2306 21.9999 19 21.9999C20.6569 21.9999 22 23.343 22 24.9999C22 26.6567 20.6569 27.9999 19 27.9999V27.9998H18.9716L18.9332 27.9992H11.5833C11.5556 27.9996 11.5278 27.9998 11.5 27.9998C8.46244 27.9998 6 25.5373 6 22.4998C6 19.4622 8.46244 16.9998 11.5 16.9998C13.8631 16.9998 15.878 18.49 16.6564 20.5819C17.1222 20.3343 17.6318 20.1582 18.1706 20.0683C18.1706 20.0683 18.1706 20.0683 18.1706 20.0683ZM22.8619 21.8239C23.573 22.6875 24 23.7938 24 24.9999C24 27.7613 21.7614 29.9999 19 29.9999L18.9634 29.9998H11.5388V29.9997L11.5 29.9998C7.35787 29.9998 4 26.6419 4 22.4998C4 20.0402 5.18397 17.8571 7.01308 16.4894C7.0044 16.3274 7 16.1642 7 16C7 11.0294 11.0294 7 16 7C20.9706 7 25 11.0294 25 16C25 18.221 24.1955 20.2542 22.8619 21.8239ZM30 17C30.5523 17 31 16.5523 31 16C31 15.4477 30.5523 15 30 15H27C26.4477 15 26 15.4477 26 16C26 16.5523 26.4477 17 27 17H30ZM28.9904 8.5C29.2665 8.97829 29.1026 9.58988 28.6243 9.86603L26.0263 11.366C25.548 11.6422 24.9364 11.4783 24.6602 11C24.3841 10.5217 24.548 9.91012 25.0263 9.63397L27.6243 8.13397C28.1026 7.85783 28.7142 8.02171 28.9904 8.5ZM23.8661 4.37573C24.1422 3.89744 23.9784 3.28585 23.5001 3.00971C23.0218 2.73356 22.4102 2.89744 22.134 3.37573L20.634 5.97381C20.3579 6.4521 20.5218 7.06369 21.0001 7.33983C21.4784 7.61598 22.0899 7.4521 22.3661 6.97381L23.8661 4.37573ZM8.5 3.00971C8.97829 2.73356 9.58988 2.89744 9.86603 3.37573L11.366 5.97381C11.6422 6.4521 11.4783 7.06369 11 7.33983C10.5217 7.61598 9.91012 7.4521 9.63397 6.97381L8.13397 4.37573C7.85783 3.89744 8.02171 3.28585 8.5 3.00971ZM4.37567 8.13397C3.89738 7.85783 3.28579 8.02171 3.00965 8.5C2.7335 8.97829 2.89738 9.58988 3.37567 9.86603L5.97375 11.366C6.45204 11.6422 7.06363 11.4783 7.33977 11C7.61592 10.5217 7.45204 9.91012 6.97375 9.63397L4.37567 8.13397ZM6 16C6 16.5523 5.55228 17 5 17H2C1.44772 17 1 16.5523 1 16C1 15.4477 1.44772 15 2 15H5C5.55228 15 6 15.4477 6 16ZM26.0263 20.634C25.548 20.3578 24.9364 20.5217 24.6603 21C24.3841 21.4783 24.548 22.0899 25.0263 22.366L27.6244 23.866C28.1027 24.1422 28.7143 23.9783 28.9904 23.5C29.2666 23.0217 29.1027 22.4101 28.6244 22.134L26.0263 20.634Z" fill="#FFE4CF"/>
</svg>
