<svg width="32" height="32" viewBox="0 0 32 32" fill="none" xmlns="http://www.w3.org/2000/svg">
<path fill-rule="evenodd" clip-rule="evenodd" d="M24 23.9572C27.375 23.57 30 20.6028 30 17C30 13.134 26.9776 10 23.2493 10C23.1054 10 22.9626 10.0047 22.821 10.0139C21.5661 5.38977 17.469 2 12.6083 2C6.74949 2 2 6.92487 2 13C2 18.1419 5.40237 22.4598 10 23.665V21.5772C6.55261 20.4291 4 17.0657 4 13C4 7.96046 7.92179 4 12.6083 4C16.5839 4 20.0091 6.85004 20.9569 10.7911L20.9599 10.7899C21.0937 11.3367 21.1791 11.9037 21.2108 12.4855C21.8339 12.1732 22.5272 12 23.2493 12C25.8053 12 28 14.1696 28 17C28 19.5486 26.2205 21.5615 24 21.937V23.9572ZM16.0021 27.456C16.0025 28.8622 14.8835 30.0021 13.5027 30.0021C12.1218 30.0021 11.0021 28.8622 11.0017 27.456C11.0009 25.0553 13.5002 22 13.5002 22C13.5002 22 16.0015 25.3172 16.0021 27.456ZM19.5027 27.0021C20.8835 27.0021 22.0025 25.8622 22.0021 24.456C22.0015 22.3172 19.5002 19 19.5002 19C19.5002 19 17.0009 22.0553 17.0017 24.456C17.0021 25.8622 18.1218 27.0021 19.5027 27.0021Z" fill="#FFE4CF"/>
</svg>
