<svg width="32" height="32" viewBox="0 0 32 32" fill="none" xmlns="http://www.w3.org/2000/svg">
<path fill-rule="evenodd" clip-rule="evenodd" d="M30 17C30 20.6028 27.375 23.57 24 23.9572V21.937C26.2205 21.5615 28 19.5486 28 17C28 14.1696 25.8053 12 23.2493 12C22.5272 12 21.8339 12.1732 21.2108 12.4855C21.1791 11.9037 21.0937 11.3367 20.9599 10.7899L20.9569 10.7911C20.0091 6.85004 16.5839 4 12.6083 4C7.92179 4 4 7.96046 4 13C4 17.0657 6.55261 20.4291 10 21.5772V23.665C5.40237 22.4598 2 18.1419 2 13C2 6.92487 6.74949 2 12.6083 2C14.6627 2 16.5808 2.60557 18.2055 3.65397C19.452 2.62094 21.0525 2 22.798 2C26.7756 2 30.0001 5.22449 30.0001 9.2021C30.0001 10.6381 29.5798 11.9759 28.8556 13.0993C29.5783 14.2139 30 15.5559 30 17ZM13.5027 30.0021C14.8835 30.0021 16.0025 28.8622 16.0021 27.456C16.0015 25.3172 13.5002 22 13.5002 22C13.5002 22 11.0009 25.0553 11.0017 27.456C11.0021 28.8622 12.1218 30.0021 13.5027 30.0021ZM22.0021 24.456C22.0025 25.8622 20.8835 27.0021 19.5027 27.0021C18.1218 27.0021 17.0021 25.8622 17.0017 24.456C17.0009 22.0553 19.5002 19 19.5002 19C19.5002 19 22.0015 22.3172 22.0021 24.456Z" fill="#FFE4CF"/>
</svg>
