<svg width="32" height="32" viewBox="0 0 32 32" fill="none" xmlns="http://www.w3.org/2000/svg">
<path fill-rule="evenodd" clip-rule="evenodd" d="M2 13C2 17.3628 4.44938 21.1323 8 22.9107V20.6003C5.61019 19.0152 4 16.2291 4 13C4 7.96046 7.92179 4 12.6083 4C16.5839 4 20.0091 6.85004 20.9569 10.7911L20.9599 10.7899C21.0937 11.3367 21.1791 11.9037 21.2108 12.4855C21.8339 12.1732 22.5272 12 23.2493 12C25.8053 12 28 14.1696 28 17C28 18.7105 27.1984 20.1797 26 21.0745V23.3944C28.3573 22.3025 30 19.8501 30 17C30 15.3458 29.4467 13.8257 28.5214 12.6277C29.4453 11.5051 30 10.0673 30 8.5C30 4.91015 27.0899 2 23.5 2C21.6351 2 19.9536 2.78539 18.7683 4.04346C17.0317 2.75697 14.9052 2 12.6083 2C6.74949 2 2 6.92487 2 13ZM22.504 9.02834C22.6241 9.34981 22.73 9.67859 22.821 10.0139C22.9626 10.0047 23.1054 10 23.2493 10C24.3788 10 25.4435 10.2876 26.379 10.7961C25.3506 9.8151 24.001 9.1679 22.504 9.02834ZM17.7192 21.9348C18.915 22.6254 20.4541 22.1979 21.157 20.9801C22.2262 19.1276 21.7192 15.0041 21.7192 15.0041C21.7192 15.0041 18.0269 16.3999 16.8269 18.4792C16.124 19.6971 16.5235 21.2442 17.7192 21.9348ZM11.1164 22.9525C12.3121 23.6431 13.8513 23.2156 14.5541 21.9978C15.6233 20.1453 15.1164 16.0218 15.1164 16.0218C15.1164 16.0218 11.4241 17.4176 10.224 19.4969C9.52113 20.7147 9.92065 22.2619 11.1164 22.9525ZM23.4112 27.1131C22.7083 28.331 21.1692 28.7584 19.9734 28.0678C18.7777 27.3772 18.3782 25.8301 19.0811 24.6122C20.2811 22.5329 23.9734 21.1371 23.9734 21.1371C23.9734 21.1371 24.4804 25.2606 23.4112 27.1131ZM13.2551 29.6697C14.4509 30.3603 15.99 29.9329 16.6929 28.715C17.762 26.8625 17.2551 22.739 17.2551 22.739C17.2551 22.739 13.5628 24.1348 12.3628 26.2141C11.6599 27.432 12.0594 28.9791 13.2551 29.6697Z" fill="#FFE4CF"/>
</svg>
