<svg width="32" height="32" viewBox="0 0 32 32" fill="none" xmlns="http://www.w3.org/2000/svg">
<path fill-rule="evenodd" clip-rule="evenodd" d="M10 23.665C5.40237 22.4598 2 18.1419 2 13C2 6.92487 6.74949 2 12.6083 2C14.9052 2 17.0317 2.75697 18.7682 4.04345C19.9536 2.78539 21.6351 2 23.5 2C27.0898 2 30 4.91015 30 8.5C30 10.0673 29.4453 11.5051 28.5214 12.6277C29.4467 13.8256 30 15.3458 30 17C30 20.866 26.9776 24 23.2493 24C23.1658 24 23.0827 23.9984 23 23.9953V22H23.3029V21.9996C25.8359 21.9695 28 19.8105 28 17C28 14.1696 25.8053 12 23.2493 12C22.5272 12 21.8339 12.1732 21.2108 12.4855C21.1791 11.9037 21.0937 11.3367 20.9599 10.7899L20.9569 10.7911C20.0091 6.85004 16.5839 4 12.6083 4C7.92179 4 4 7.96046 4 13C4 17.0657 6.55261 20.4291 10 21.5772V23.665ZM26.3789 10.7961C25.3505 9.81509 24.001 9.1679 22.504 9.02834C22.6241 9.34981 22.73 9.6786 22.821 10.0139C22.9626 10.0047 23.1054 10 23.2493 10C24.3787 10 25.4434 10.2876 26.3789 10.7961ZM18.5547 16.168C19.0142 16.4743 19.1384 17.0952 18.8321 17.5547L15.8685 22H18.9804C19.8044 22 20.2816 22.9334 19.7992 23.6013L15.4773 29.5855C15.154 30.0332 14.5289 30.134 14.0812 29.8107C13.6335 29.4873 13.5326 28.8622 13.856 28.4145L17.0442 24H14.0187C13.212 24 12.7309 23.1009 13.1783 22.4298L17.168 16.4453C17.4743 15.9858 18.0952 15.8616 18.5547 16.168Z" fill="#FFE4CF"/>
</svg>
