<svg width="32" height="32" viewBox="0 0 32 32" fill="none" xmlns="http://www.w3.org/2000/svg">
<path fill-rule="evenodd" clip-rule="evenodd" d="M8 22.9107C4.44938 21.1323 2 17.3628 2 13C2 6.92487 6.74949 2 12.6083 2C15.4013 2 17.9422 3.11925 19.8366 4.94879C20.9587 2.72452 23.5197 1.51432 26.0199 2.1847C26.3224 2.26583 26.612 2.37126 26.8871 2.49833C25.8142 2.6724 24.8941 3.46382 24.6104 4.58462C24.2293 6.09048 25.1411 7.62067 26.647 8.00239C28.0002 8.34539 29.3727 7.64442 29.9137 6.4062C30.0538 7.16703 30.0311 7.97019 29.8176 8.76718C29.4797 10.0293 28.7198 11.0656 27.7306 11.7647C29.1228 13.0469 30 14.9172 30 17C30 19.8501 28.3573 22.3025 26 23.3944V21.0745C27.1984 20.1797 28 18.7105 28 17C28 14.1696 25.8053 12 23.2493 12C22.5272 12 21.8339 12.1732 21.2108 12.4855C21.1791 11.9037 21.0937 11.3367 20.9599 10.7899L20.9569 10.7911C20.0091 6.85004 16.5839 4 12.6083 4C7.92179 4 4 7.96046 4 13C4 16.2291 5.61019 19.0152 8 20.6003V22.9107ZM17.7192 21.9348C18.915 22.6254 20.4541 22.1979 21.157 20.9801C22.2262 19.1276 21.7192 15.0041 21.7192 15.0041C21.7192 15.0041 18.0269 16.3999 16.8269 18.4792C16.124 19.697 16.5235 21.2442 17.7192 21.9348ZM11.1164 22.9525C12.3121 23.6431 13.8513 23.2156 14.5541 21.9978C15.6233 20.1453 15.1164 16.0218 15.1164 16.0218C15.1164 16.0218 11.4241 17.4176 10.224 19.4969C9.52113 20.7147 9.92065 22.2619 11.1164 22.9525ZM23.4112 27.1131C22.7083 28.331 21.1692 28.7584 19.9734 28.0678C18.7777 27.3772 18.3782 25.8301 19.0811 24.6122C20.2811 22.5329 23.9734 21.1371 23.9734 21.1371C23.9734 21.1371 24.4804 25.2606 23.4112 27.1131ZM13.2551 29.6697C14.4509 30.3603 15.99 29.9329 16.6929 28.715C17.762 26.8625 17.2551 22.739 17.2551 22.739C17.2551 22.739 13.5628 24.1348 12.3628 26.2141C11.6599 27.432 12.0594 28.9791 13.2551 29.6697Z" fill="#FFE4CF"/>
</svg>
