<svg width="32" height="32" viewBox="0 0 32 32" fill="none" xmlns="http://www.w3.org/2000/svg">
<path fill-rule="evenodd" clip-rule="evenodd" d="M9 23.3473C4.91752 21.8163 2 17.7615 2 13C2 6.92487 6.74949 2 12.6083 2C17.469 2 21.5661 5.38977 22.821 10.0139C22.9626 10.0047 23.1054 10 23.2493 10C26.9776 10 30 13.134 30 17C30 20.6028 27.375 23.57 24 23.9572V21.937C26.2205 21.5615 28 19.5486 28 17C28 14.1696 25.8053 12 23.2493 12C22.5272 12 21.8339 12.1732 21.2108 12.4855C21.1791 11.9037 21.0937 11.3367 20.9599 10.7899L20.9569 10.7911C20.0091 6.85004 16.5839 4 12.6083 4C7.92179 4 4 7.96046 4 13C4 16.6616 6.0703 19.7535 9 21.1706V23.3473ZM13.8244 17.8771C13.9098 17.9368 13.9098 18.0632 13.8244 18.1229L13.3348 18.4656C13.287 18.4991 13.263 18.5572 13.2731 18.6146L13.377 19.2032C13.3951 19.3057 13.3057 19.3951 13.2032 19.377L12.6146 19.2731C12.5572 19.263 12.4991 19.287 12.4656 19.3348L12.1229 19.8244C12.0632 19.9098 11.9368 19.9098 11.8771 19.8244L11.5344 19.3348C11.5009 19.287 11.4428 19.263 11.3854 19.2731L10.7968 19.377C10.6943 19.3951 10.6049 19.3057 10.623 19.2032L10.7269 18.6146C10.737 18.5572 10.713 18.4991 10.6652 18.4656L10.1756 18.1229C10.0902 18.0632 10.0902 17.9368 10.1756 17.8771L10.6652 17.5344C10.713 17.5009 10.737 17.4428 10.7269 17.3854L10.623 16.7968C10.6049 16.6943 10.6943 16.6049 10.7968 16.623L11.3854 16.7269C11.4428 16.737 11.5009 16.713 11.5344 16.6652L11.8771 16.1756C11.9368 16.0902 12.0632 16.0902 12.1229 16.1756L12.4656 16.6652C12.4991 16.713 12.5572 16.737 12.6146 16.7269L13.2032 16.623C13.3057 16.6049 13.3951 16.6943 13.377 16.7968L13.2731 17.3854C13.263 17.4428 13.287 17.5009 13.3348 17.5344L13.8244 17.8771ZM17.8244 21.1229C17.9098 21.0632 17.9098 20.9368 17.8244 20.8771L17.3348 20.5344C17.287 20.5009 17.263 20.4428 17.2731 20.3854L17.377 19.7968C17.3951 19.6943 17.3057 19.6049 17.2032 19.623L16.6146 19.7269C16.5572 19.737 16.4991 19.713 16.4656 19.6652L16.1229 19.1756C16.0632 19.0902 15.9368 19.0902 15.8771 19.1756L15.5344 19.6652C15.5009 19.713 15.4428 19.737 15.3854 19.7269L14.7968 19.623C14.6943 19.6049 14.6049 19.6943 14.623 19.7968L14.7269 20.3854C14.737 20.4428 14.713 20.5009 14.6652 20.5344L14.1756 20.8771C14.0902 20.9368 14.0902 21.0632 14.1756 21.1229L14.6652 21.4656C14.713 21.4991 14.737 21.5572 14.7269 21.6146L14.623 22.2032C14.6049 22.3057 14.6943 22.3951 14.7968 22.377L15.3854 22.2731C15.4428 22.263 15.5009 22.287 15.5344 22.3348L15.8771 22.8244C15.9368 22.9098 16.0632 22.9098 16.1229 22.8244L16.4656 22.3348C16.4991 22.287 16.5572 22.263 16.6146 22.2731L17.2032 22.377C17.3057 22.3951 17.3951 22.3057 17.377 22.2032L17.2731 21.6146C17.263 21.5572 17.287 21.4991 17.3348 21.4656L17.8244 21.1229ZM17.8244 14.8771C17.9098 14.9368 17.9098 15.0632 17.8244 15.1229L17.3348 15.4656C17.287 15.4991 17.263 15.5572 17.2731 15.6146L17.377 16.2032C17.3951 16.3057 17.3057 16.3951 17.2032 16.377L16.6146 16.2731C16.5572 16.263 16.4991 16.287 16.4656 16.3348L16.1229 16.8244C16.0632 16.9098 15.9368 16.9098 15.8771 16.8244L15.5344 16.3348C15.5009 16.287 15.4428 16.263 15.3854 16.2731L14.7968 16.377C14.6943 16.3951 14.6049 16.3057 14.623 16.2032L14.7269 15.6146C14.737 15.5572 14.713 15.4991 14.6652 15.4656L14.1756 15.1229C14.0902 15.0632 14.0902 14.9368 14.1756 14.8771L14.6652 14.5344C14.713 14.5009 14.737 14.4428 14.7269 14.3854L14.623 13.7968C14.6049 13.6943 14.6943 13.6049 14.7968 13.623L15.3854 13.7269C15.4428 13.737 15.5009 13.713 15.5344 13.6652L15.8771 13.1756C15.9368 13.0902 16.0632 13.0902 16.1229 13.1756L16.4656 13.6652C16.4991 13.713 16.5572 13.737 16.6146 13.7269L17.2032 13.623C17.3057 13.6049 17.3951 13.6943 17.377 13.7968L17.2731 14.3854C17.263 14.4428 17.287 14.5009 17.3348 14.5344L17.8244 14.8771ZM21.8244 18.1229C21.9098 18.0632 21.9098 17.9368 21.8244 17.8771L21.3348 17.5344C21.287 17.5009 21.263 17.4428 21.2731 17.3854L21.377 16.7968C21.3951 16.6943 21.3057 16.6049 21.2032 16.623L20.6146 16.7269C20.5572 16.737 20.4991 16.713 20.4656 16.6652L20.1229 16.1756C20.0632 16.0902 19.9368 16.0902 19.8771 16.1756L19.5344 16.6652C19.5009 16.713 19.4428 16.737 19.3854 16.7269L18.7968 16.623C18.6943 16.6049 18.6049 16.6943 18.623 16.7968L18.7269 17.3854C18.737 17.4428 18.713 17.5009 18.6652 17.5344L18.1756 17.8771C18.0902 17.9368 18.0902 18.0632 18.1756 18.1229L18.6652 18.4656C18.713 18.4991 18.737 18.5572 18.7269 18.6146L18.623 19.2032C18.6049 19.3057 18.6943 19.3951 18.7968 19.377L19.3854 19.2731C19.4428 19.263 19.5009 19.287 19.5344 19.3348L19.8771 19.8244C19.9368 19.9098 20.0632 19.9098 20.1229 19.8244L20.4656 19.3348C20.4991 19.287 20.5572 19.263 20.6146 19.2731L21.2032 19.377C21.3057 19.3951 21.3951 19.3057 21.377 19.2032L21.2731 18.6146C21.263 18.5572 21.287 18.4991 21.3348 18.4656L21.8244 18.1229ZM15.0021 27.456C15.0025 28.8622 13.8835 30.0021 12.5027 30.0021C11.1218 30.0021 10.0021 28.8622 10.0017 27.456C10.0009 25.0553 12.5002 22 12.5002 22C12.5002 22 15.0015 25.3172 15.0021 27.456ZM19.5027 30.0021C20.8835 30.0021 22.0025 28.8622 22.0021 27.456C22.0015 25.3172 19.5002 22 19.5002 22C19.5002 22 17.0009 25.0553 17.0017 27.456C17.0021 28.8622 18.1218 30.0021 19.5027 30.0021Z" fill="#FFE4CF"/>
</svg>
