<svg width="32" height="32" viewBox="0 0 32 32" fill="none" xmlns="http://www.w3.org/2000/svg">
<path fill-rule="evenodd" clip-rule="evenodd" d="M14.9044 23.8127C14.9562 23.7751 14.9869 23.7149 14.9869 23.6509V17.7376L9.96006 20.6777C9.90421 20.7104 9.86731 20.7682 9.86102 20.833L9.45445 25.0155C9.44371 25.126 9.34632 25.2073 9.23693 25.1971L7.65235 25.049C7.54296 25.0387 7.46299 24.9409 7.47373 24.8303L7.71412 22.3574C7.72992 22.1948 7.55731 22.0831 7.41702 22.1651L6.40321 22.7581C6.30787 22.8138 6.18624 22.7812 6.13155 22.6853L5.33932 21.2952C5.28462 21.1992 5.31758 21.0762 5.41293 21.0204L6.42698 20.4273C6.56728 20.3453 6.55809 20.138 6.41116 20.0705L4.17648 19.0448C4.07662 18.9989 4.03293 18.8798 4.07888 18.7787L4.74452 17.3145C4.79048 17.2134 4.90867 17.1686 5.00853 17.2144L8.78779 18.9492C8.84628 18.9761 8.91418 18.9726 8.97003 18.9399L13.9945 16.0012L8.95627 13.0544C8.90043 13.0217 8.83253 13.0183 8.77404 13.0451L5.02138 14.7677C4.92153 14.8136 4.80333 14.7688 4.75738 14.6677L4.09173 13.2034C4.04578 13.1023 4.08948 12.9832 4.18933 12.9374L6.39741 11.9238C6.54433 11.8564 6.55353 11.6491 6.41323 11.567L5.41092 10.9808C5.31558 10.925 5.28262 10.802 5.33731 10.706L6.12954 9.31594C6.18423 9.21997 6.30586 9.18738 6.40121 9.24315L7.43273 9.84648C7.57303 9.92853 7.74564 9.81682 7.72983 9.65419L7.48659 7.1518C7.47584 7.04128 7.55581 6.94339 7.66521 6.93316L9.24978 6.78502C9.35917 6.77479 9.45656 6.85609 9.4673 6.96661L9.87673 11.1786C9.88303 11.2434 9.91993 11.3012 9.97578 11.3339L14.9869 14.2648V8.33568C14.9869 8.27162 14.9562 8.21144 14.9044 8.17382L11.5521 5.74075C11.4627 5.67587 11.4428 5.5508 11.5077 5.46141L12.4475 4.16652C12.5124 4.07713 12.6375 4.05726 12.7269 4.12214L14.6694 5.53203C14.8017 5.62799 14.9869 5.53354 14.9869 5.37017V4.2C14.9869 4.08954 15.0765 4 15.1869 4H16.7869C16.8974 4 16.9869 4.08954 16.9869 4.2V5.40401C16.9869 5.56738 17.1722 5.66183 17.3044 5.56587L19.2936 4.12214C19.383 4.05726 19.508 4.07713 19.5729 4.16652L20.5127 5.46141C20.5776 5.5508 20.5577 5.67587 20.4684 5.74075L17.0694 8.20765C17.0176 8.24528 16.9869 8.30546 16.9869 8.36951V14.251L22.039 11.2961C22.0948 11.2634 22.1317 11.2056 22.138 11.1408L22.5418 6.98741C22.5525 6.87688 22.6499 6.79558 22.7593 6.80581L24.3439 6.95396C24.4532 6.96418 24.5332 7.06207 24.5225 7.17259L24.2849 9.61638C24.2691 9.77901 24.4417 9.89072 24.582 9.80866L25.5844 9.2224C25.6797 9.16663 25.8014 9.19922 25.8561 9.29519L26.6483 10.6853C26.703 10.7812 26.67 10.9043 26.5747 10.96L25.5429 11.5635C25.4026 11.6456 25.4118 11.8529 25.5587 11.9203L27.8197 12.9582C27.9196 13.004 27.9633 13.1231 27.9173 13.2242L27.2517 14.6885C27.2057 14.7896 27.0875 14.8344 26.9877 14.7885L23.1821 13.0416C23.1236 13.0148 23.0557 13.0182 22.9998 13.0509L17.9556 16.0012L23.0157 18.9608C23.0716 18.9934 23.1395 18.9969 23.1979 18.9701L26.9768 17.2354C27.0766 17.1896 27.1948 17.2344 27.2408 17.3355L27.9064 18.7998C27.9524 18.9009 27.9087 19.02 27.8088 19.0658L25.5746 20.0914C25.4277 20.1588 25.4185 20.3661 25.5588 20.4482L26.5727 21.0412C26.668 21.097 26.701 21.22 26.6463 21.3159L25.854 22.706C25.7994 22.802 25.6777 22.8346 25.5824 22.7788L24.5682 22.1857C24.4279 22.1036 24.2553 22.2153 24.2711 22.3779L24.5116 24.8514C24.5223 24.9619 24.4423 25.0598 24.333 25.07L22.7484 25.2182C22.639 25.2284 22.5416 25.1471 22.5309 25.0366L22.1242 20.8535C22.118 20.7888 22.0811 20.7309 22.0252 20.6983L16.9869 17.7514V23.6508C16.9869 23.7148 17.0176 23.775 17.0694 23.8126L20.4451 26.2627C20.5345 26.3276 20.5544 26.4526 20.4895 26.542L19.5497 27.8369C19.4848 27.9263 19.3597 27.9462 19.2703 27.8813L17.3044 26.4544C17.1722 26.3585 16.9869 26.4529 16.9869 26.6163V27.8C16.9869 27.9105 16.8974 28 16.7869 28H15.1869C15.0765 28 14.9869 27.9105 14.9869 27.8V26.6164C14.9869 26.453 14.8017 26.3585 14.6694 26.4545L12.7036 27.8813C12.6142 27.9462 12.4892 27.9263 12.4243 27.8369L11.4845 26.542C11.4196 26.4526 11.4395 26.3276 11.5289 26.2627L14.9044 23.8127Z" fill="#FFE4CF"/>
</svg>
