<svg width="32" height="32" viewBox="0 0 32 32" fill="none" xmlns="http://www.w3.org/2000/svg">
<path fill-rule="evenodd" clip-rule="evenodd" d="M16 1C16.5523 1 17 1.44772 17 2V5C17 5.55228 16.5523 6 16 6C15.4477 6 15 5.55228 15 5V2C15 1.44772 15.4477 1 16 1ZM23.5001 3.00971C23.9784 3.28585 24.1422 3.89744 23.8661 4.37573L22.3661 6.97381C22.0899 7.4521 21.4784 7.61598 21.0001 7.33983C20.5218 7.06369 20.3579 6.4521 20.634 5.97381L22.134 3.37573C22.4102 2.89744 23.0218 2.73356 23.5001 3.00971ZM25 16C25 20.9706 20.9706 25 16 25C11.0294 25 7 20.9706 7 16C7 11.0294 11.0294 7 16 7C20.9706 7 25 11.0294 25 16ZM31 16C31 16.5523 30.5523 17 30 17H27C26.4477 17 26 16.5523 26 16C26 15.4477 26.4477 15 27 15H30C30.5523 15 31 15.4477 31 16ZM28.6243 9.86603C29.1026 9.58988 29.2665 8.97829 28.9904 8.5C28.7142 8.02171 28.1026 7.85783 27.6243 8.13397L25.0263 9.63397C24.548 9.91012 24.3841 10.5217 24.6602 11C24.9364 11.4783 25.548 11.6422 26.0263 11.366L28.6243 9.86603ZM9.86603 3.37573C9.58988 2.89744 8.97829 2.73356 8.5 3.00971C8.02171 3.28585 7.85783 3.89744 8.13397 4.37573L9.63397 6.97381C9.91012 7.4521 10.5217 7.61598 11 7.33983C11.4783 7.06369 11.6422 6.4521 11.366 5.97381L9.86603 3.37573ZM3.00965 8.5C3.28579 8.02171 3.89738 7.85783 4.37567 8.13397L6.97375 9.63397C7.45204 9.91012 7.61592 10.5217 7.33977 11C7.06363 11.4783 6.45204 11.6422 5.97375 11.366L3.37567 9.86603C2.89738 9.58988 2.7335 8.97829 3.00965 8.5ZM17 27C17 26.4477 16.5523 26 16 26C15.4477 26 15 26.4477 15 27V30C15 30.5523 15.4477 31 16 31C16.5523 31 17 30.5523 17 30V27ZM5 17C5.55228 17 6 16.5523 6 16C6 15.4477 5.55228 15 5 15H2C1.44772 15 1 15.4477 1 16C1 16.5523 1.44772 17 2 17H5ZM7.33972 21C7.61586 21.4783 7.45199 22.0899 6.97369 22.366L4.37562 23.866C3.89732 24.1422 3.28573 23.9783 3.00959 23.5C2.73345 23.0217 2.89732 22.4101 3.37562 22.134L5.97369 20.634C6.45199 20.3578 7.06358 20.5217 7.33972 21ZM11.3661 26.0264C11.6422 25.5481 11.4784 24.9365 11.0001 24.6603C10.5218 24.3842 9.91018 24.5481 9.63404 25.0264L8.13404 27.6244C7.85789 28.1027 8.02177 28.7143 8.50006 28.9905C8.97835 29.2666 9.58994 29.1027 9.86609 28.6244L11.3661 26.0264ZM21 24.6603C21.4783 24.3842 22.0899 24.5481 22.366 25.0264L23.866 27.6244C24.1422 28.1027 23.9783 28.7143 23.5 28.9905C23.0217 29.2666 22.4101 29.1027 22.134 28.6244L20.634 26.0264C20.3578 25.5481 20.5217 24.9365 21 24.6603ZM26.0263 20.634C25.548 20.3578 24.9364 20.5217 24.6603 21C24.3841 21.4783 24.548 22.0899 25.0263 22.366L27.6244 23.866C28.1027 24.1422 28.7143 23.9783 28.9904 23.5C29.2666 23.0217 29.1027 22.4101 28.6244 22.134L26.0263 20.634Z" fill="#FFE4CF"/>
</svg>
