<svg width="25" height="25" viewBox="0 0 25 25" fill="none" xmlns="http://www.w3.org/2000/svg">
<path d="M10.1675 4.83998C10.3998 4.6063 10.6863 4.43363 11.0014 4.33732C11.3165 4.24102 11.6505 4.22407 11.9738 4.28797C12.297 4.35188 12.5995 4.49466 12.8543 4.70363C13.109 4.91259 13.3082 5.18127 13.4341 5.48578C13.5601 5.79028 13.6088 6.12117 13.576 6.44905C13.5432 6.77692 13.4299 7.09161 13.2462 7.36514C13.0624 7.63868 12.814 7.86258 12.5229 8.01695C12.2318 8.17132 11.907 8.25137 11.5775 8.24998H2.57751M13.1675 19.66C13.3998 19.8937 13.6863 20.0663 14.0014 20.1626C14.3165 20.2589 14.6505 20.2759 14.9738 20.212C15.297 20.1481 15.5995 20.0053 15.8543 19.7963C16.109 19.5874 16.3082 19.3187 16.4341 19.0142C16.5601 18.7097 16.6088 18.3788 16.576 18.0509C16.5432 17.723 16.4299 17.4084 16.2462 17.1348C16.0624 16.8613 15.814 16.6374 15.5229 16.483C15.2318 16.3286 14.907 16.2486 14.5775 16.25H2.57751M18.3075 7.97998C18.5984 7.68987 18.9562 7.4759 19.3494 7.35699C19.7427 7.23809 20.1591 7.21792 20.562 7.29827C20.9649 7.37861 21.3417 7.557 21.6593 7.81765C21.9768 8.0783 22.2252 8.41318 22.3825 8.79267C22.5398 9.17217 22.6012 9.58458 22.5612 9.99343C22.5212 10.4023 22.381 10.795 22.1531 11.1368C21.9253 11.4786 21.6167 11.759 21.2546 11.9531C20.8926 12.1473 20.4883 12.2492 20.0775 12.25H2.57751" stroke="#FFB38F" stroke-width="2" stroke-linecap="round" stroke-linejoin="round"/>
</svg>
